<svg width="49" height="49" viewBox="0 0 49 49" fill="none" xmlns="http://www.w3.org/2000/svg">
<path d="M8.59731 40.331C7.75658 39.8317 7.03355 39.1927 6.18722 38.294C5.74794 37.8151 5.31261 37.3333 4.88128 36.8486C3.58375 35.4132 2.76544 34.7492 1.92191 34.4771C1.56698 34.3725 1.23915 34.2057 0.957711 33.9864C0.676272 33.7672 0.446919 33.5001 0.283158 33.2007C0.119396 32.9013 0.0245361 32.5758 0.00416393 32.2433C-0.0162082 31.9107 0.038319 31.5779 0.164535 31.2645C0.290751 30.951 0.486105 30.6632 0.739092 30.418C0.992079 30.1728 1.29758 29.9752 1.63762 29.8367C1.97766 29.6983 2.34535 29.6219 2.71904 29.612C3.09273 29.6021 3.46488 29.6589 3.81355 29.779C5.92098 30.4531 7.34742 31.6138 9.26989 33.7432C9.00646 33.4511 10.2227 34.8091 10.4833 35.0887C11.0158 35.6554 11.4082 35.9999 11.7164 36.1821C12.2881 36.5241 13.3643 36.6714 14.9392 36.5316C15.0065 35.578 15.2026 34.6519 15.5053 33.7956C7.18768 31.9858 2.47959 27.2053 2.47959 17.8291C2.47959 14.7387 3.51649 11.9503 5.44457 9.61374C4.83364 7.38203 4.92612 4.6835 6.2909 1.64548C6.44545 1.30136 6.68407 0.992212 6.98946 0.740478C7.29484 0.488745 7.65932 0.300744 8.05644 0.190123C8.28344 0.130211 8.41235 0.105248 8.63935 0.0727958C10.8897 -0.234252 14.0677 0.497171 18.2097 2.81126C20.678 2.29723 23.2049 2.03922 25.7398 2.0424C28.2956 2.0424 30.8374 2.29952 33.2615 2.81126C37.4007 0.482192 40.5871 -0.251726 42.8515 0.0727958C43.0897 0.107744 43.2942 0.152678 43.4624 0.200108C43.8515 0.314381 44.2077 0.503246 44.5059 0.7534C44.8042 1.00355 45.0372 1.30891 45.1887 1.64798C46.5535 4.68101 46.646 7.37953 46.035 9.61125C47.9715 11.9478 49 14.7162 49 17.8291C49 27.2103 44.3087 31.9733 35.9911 33.7881C36.3414 34.8241 36.5236 35.9799 36.5236 37.2331C36.5236 38.8906 36.518 40.4758 36.5039 42.2507C36.5039 42.725 36.4983 43.2342 36.4899 44.0131C37.1179 44.1362 37.6792 44.448 38.0797 44.8961C38.4802 45.3441 38.6955 45.9012 38.6896 46.474C38.6837 47.0467 38.4569 47.6002 38.0472 48.0416C37.6375 48.483 37.0699 48.7855 36.4395 48.8984C33.2447 49.4675 30.8795 47.5703 30.8795 45.094L30.8851 43.9781L30.8991 42.2182C30.9131 40.4533 30.9215 38.8781 30.9215 37.2331C30.9215 35.4931 30.4058 34.3573 29.7277 33.8356C27.8753 32.4127 28.8141 29.7067 31.2438 29.4645C39.5558 28.6307 43.3951 25.7625 43.3951 17.8316C43.3951 15.4477 42.5208 13.4756 40.8365 11.828C40.4827 11.4816 40.2453 11.0535 40.1517 10.5926C40.058 10.1318 40.1118 9.65674 40.3068 9.22182C40.7721 8.18585 40.9682 6.83284 40.5731 5.19276L40.5451 5.19775C39.1691 5.54723 37.4344 6.29613 35.3381 7.56925C35.0001 7.77359 34.616 7.90963 34.2128 7.96785C33.8095 8.02606 33.3969 8.00504 33.0037 7.90626C30.6383 7.32199 28.1945 7.02804 25.7398 7.03255C23.2456 7.03255 20.7739 7.3321 18.4759 7.90626C18.0848 8.00424 17.6744 8.02529 17.2733 7.96796C16.8721 7.91063 16.4897 7.77629 16.1527 7.57425C14.0424 6.30861 12.3021 5.55971 10.9121 5.21023C10.5114 6.84033 10.7103 8.19084 11.1727 9.22182C11.3678 9.65674 11.4216 10.1318 11.3279 10.5926C11.2343 11.0535 10.9969 11.4816 10.6431 11.828C8.97003 13.4656 8.08446 15.4701 8.08446 17.8291C8.08446 25.7475 11.9266 28.6382 20.1966 29.462C22.6207 29.7066 23.5651 32.4027 21.7239 33.8281C21.183 34.245 20.5189 35.6554 20.5189 37.2331V45.094C20.5189 47.5554 18.1816 49.4026 15.0261 48.9109C14.385 48.8121 13.8024 48.5177 13.3783 48.0782C12.9542 47.6386 12.715 47.0814 12.7017 46.5019C12.6884 45.9224 12.902 45.3569 13.3056 44.9024C13.7093 44.4478 14.2779 44.1325 14.914 44.0106V41.5392C12.3638 41.694 10.2592 41.322 8.59731 40.331Z" fill="white"/>
</svg>
