<svg width="49" height="49" viewBox="0 0 49 49" fill="none" xmlns="http://www.w3.org/2000/svg">
<path d="M10.2833 5.44686C10.2826 6.89074 9.74027 8.27519 8.77554 9.29566C7.81081 10.3161 6.50274 10.889 5.13909 10.8883C3.77544 10.8876 2.46791 10.3133 1.50414 9.29181C0.540373 8.27032 -0.000681183 6.8853 6.43637e-07 5.44142C0.00068247 3.99754 0.543045 2.61309 1.50778 1.59263C2.47251 0.572164 3.78058 -0.000721257 5.14423 6.81502e-07C6.50788 0.00072262 7.81541 0.574992 8.77918 1.59648C9.74294 2.61796 10.284 4.00299 10.2833 5.44686ZM10.4376 14.9197H0.15425V49H10.4376V14.9197ZM26.6852 14.9197H16.4533V49H26.5824V31.116C26.5824 21.1532 38.8452 20.2277 38.8452 31.116V49H49V27.414C49 10.6188 30.8499 11.2449 26.5824 19.4928L26.6852 14.9197Z" fill="white"/>
</svg>
