<svg width="49" height="49" viewBox="0 0 49 49" fill="none" xmlns="http://www.w3.org/2000/svg">
<path d="M33.968 5.89078C32.1116 5.8904 30.3293 6.76789 29.0043 8.33451C27.6794 9.90113 26.9177 12.0317 26.8832 14.268L26.8148 18.904C26.8111 19.1532 26.7637 19.3986 26.6757 19.6241C26.5877 19.8496 26.4611 20.0501 26.3042 20.2125C26.1473 20.3749 25.9636 20.4954 25.7653 20.5661C25.567 20.6369 25.3585 20.6563 25.1535 20.623L21.3375 19.996C16.3219 19.1718 11.514 16.3902 6.89914 11.7601C5.44064 21.5031 8.29167 28.2525 15.1639 33.4596L19.4319 36.6916C19.6344 36.845 19.8026 37.0557 19.9219 37.3055C20.0412 37.5552 20.108 37.8363 20.1164 38.1242C20.1248 38.4122 20.0747 38.6983 19.9703 38.9575C19.8658 39.2168 19.7104 39.4413 19.5174 39.6115L15.6281 43.0377C17.9417 43.2143 20.138 43.0907 21.9605 42.6551C33.4867 39.8823 41.1505 29.4329 41.1505 12.1958C41.1505 10.7888 38.6757 5.89078 33.968 5.89078ZM21.9971 14.162C22.0398 11.3246 22.7762 8.56545 24.1141 6.22994C25.4521 3.89442 27.3322 2.08637 29.519 1.03215C31.7058 -0.0220744 34.1021 -0.275612 36.408 0.303279C38.7138 0.88217 40.8266 2.26776 42.482 4.28658C44.219 4.27186 45.697 4.80169 49 2.38508C48.184 7.21242 47.7785 9.31113 46.0366 12.1928C46.0366 34.6841 34.5616 45.6251 22.9157 48.4243C14.9343 50.3435 3.32253 47.191 0 43.0024C1.69302 42.8464 8.58239 41.9545 12.5645 38.44C9.19315 35.7614 -4.21424 26.2539 4.5978 0.698452C8.73386 6.51775 12.9286 10.4768 17.1794 12.5814C20.006 13.9795 20.7023 13.9501 21.9996 14.165L21.9971 14.162Z" fill="white"/>
</svg>
